<?xml version="1.0"?>
<svg xmlns="http://www.w3.org/2000/svg" xmlns:xlink="http://www.w3.org/1999/xlink" version="1.1" id="Capa_1" x="0px" y="0px" viewBox="0 0 512 512" style="enable-background:new 0 0 512 512;" xml:space="preserve" width="512px" height="512px" class="hovered-paths"><g><g>
	<g>
		<path d="M256.32,0C117.453,0,4.474,112.979,4.474,251.845c0,31.212,5.817,61.945,17.316,91.412    c8.93,22.621,20.755,43.415,35.239,61.958l-34.383,80.034c-2.781,6.475-1.79,13.947,2.576,19.47    c3.675,4.647,9.243,7.281,15.04,7.281c1.106,0,2.212-0.096,3.317-0.288l129.764-22.756c25.837,9.23,54.179,14.094,82.336,14.094    c138.866,0,251.845-112.972,251.845-251.845C507.526,112.691,394.835,0,256.32,0z M255.674,464.706    c-25.351,0-50.823-4.647-73.649-13.423c-3.247-1.253-6.769-1.604-10.195-0.991l-99.945,17.521l24.993-58.18    c2.902-6.75,1.688-14.574-3.126-20.128c-15.2-17.54-27.409-37.834-36.255-60.257c-9.735-24.935-14.67-50.983-14.67-77.401    c0-117.722,95.771-213.493,213.493-213.493c117.364,0,212.854,95.484,212.848,212.86    C469.167,368.934,373.396,464.706,255.674,464.706z" data-original="#000000" class="hovered-path active-path" data-old_color="#000000" fill="#FFFFFF"/>
	</g>
</g><g>
	<g>
		<path d="M131.036,205.184c-28.195,0-51.136,22.941-51.136,51.136c0,28.195,22.941,51.136,51.136,51.136    c28.195,0,51.136-22.935,51.136-51.136S159.231,205.184,131.036,205.184z M131.036,269.104c-7.05,0-12.784-5.734-12.784-12.784    c0-7.05,5.734-12.784,12.784-12.784c7.05,0,12.784,5.734,12.784,12.784C143.82,263.37,138.087,269.104,131.036,269.104z" data-original="#000000" class="hovered-path active-path" data-old_color="#000000" fill="#FFFFFF"/>
	</g>
</g><g>
	<g>
		<path d="M256.32,205.184c-28.195,0-51.136,22.941-51.136,51.136c0,28.195,22.941,51.136,51.136,51.136    c28.195,0,51.136-22.935,51.136-51.136S284.521,205.184,256.32,205.184z M256.32,269.104c-7.05,0-12.784-5.734-12.784-12.784    c0-7.05,5.734-12.784,12.784-12.784c7.05,0,12.784,5.734,12.784,12.784C269.104,263.37,263.37,269.104,256.32,269.104z" data-original="#000000" class="hovered-path active-path" data-old_color="#000000" fill="#FFFFFF"/>
	</g>
</g><g>
	<g>
		<path d="M381.603,205.184c-28.195,0-51.136,22.941-51.136,51.136c0,28.195,22.941,51.136,51.136,51.136    c28.195,0,51.136-22.935,51.136-51.136S409.798,205.184,381.603,205.184z M381.603,269.104c-7.05,0-12.784-5.734-12.784-12.784    c0-7.05,5.734-12.784,12.784-12.784c7.044,0,12.784,5.734,12.784,12.784C394.387,263.37,388.653,269.104,381.603,269.104z" data-original="#000000" class="hovered-path active-path" data-old_color="#000000" fill="#FFFFFF"/>
	</g>
</g></g> </svg>
