<?xml version="1.0" encoding="UTF-8"?> <svg xmlns="http://www.w3.org/2000/svg" width="621" height="625" viewBox="0 0 621 625" fill="none"> <path fill-rule="evenodd" clip-rule="evenodd" d="M313.128 0.249686C365.183 2.95782 412.139 27.9319 456.882 54.6726C501.108 81.1042 543.095 111.493 571.351 154.576C600.527 199.062 616.678 250.578 620.184 303.662C623.836 358.947 613.332 413.506 591.827 464.568C568.384 520.236 544.067 582.935 490.676 611.183C437.457 639.341 373.327 613.137 313.128 612.024C254.15 610.933 192.845 629.505 139.332 604.686C84.4011 579.208 39.3766 530.905 16.9542 474.658C-4.52047 420.788 20.3829 361.644 19.3312 303.662C18.256 244.385 -17.2328 181.348 10.6855 129.046C38.5734 76.8014 105.984 62.4553 160.471 39.2518C209.63 18.3174 259.77 -2.52628 313.128 0.249686Z" fill="#F7D993"></path> </svg> 